<svg xmlns="http://www.w3.org/2000/svg" xmlns:xlink="http://www.w3.org/1999/xlink" viewBox="0 0 28.01 28.01"><defs><style>.cls-1{fill:none;}.cls-2{clip-path:url(#clip-path);}</style><clipPath id="clip-path" transform="translate(0 -0.02)"><rect class="cls-1" width="28.03" height="28.09"/></clipPath></defs><g id="Layer_2" data-name="Layer 2"><g id="Layer_1-2" data-name="Layer 1"><path d="M15.92,13.3a.48.48,0,0,0,.42.26.54.54,0,0,0,.21-.05,38.75,38.75,0,0,1,4.13-1.84.47.47,0,0,0,.3-.59.46.46,0,0,0-.58-.3,38.48,38.48,0,0,0-4.27,1.9.46.46,0,0,0-.21.62Z" transform="translate(0 -0.02)"/><g class="cls-2"><path d="M16.34,8a.54.54,0,0,0,.21,0,38.75,38.75,0,0,1,4.13-1.84.47.47,0,0,0,.3-.59.46.46,0,0,0-.58-.3,41.09,41.09,0,0,0-4.27,1.89.47.47,0,0,0-.21.63.48.48,0,0,0,.42.26Z" transform="translate(0 -0.02)"/><path d="M27.54,7a.47.47,0,0,0-.47.47v18.2a1.4,1.4,0,0,1-1.4,1.4H14.47V26a13.69,13.69,0,0,1,4.2-.79,24.09,24.09,0,0,1,6.86.91.49.49,0,0,0,.42-.07.46.46,0,0,0,.19-.38V5.16a.47.47,0,0,0-.37-.46l-1-.2a.48.48,0,0,0-.54.38.46.46,0,0,0,.37.54l.6.12V25.07a26.78,26.78,0,0,0-6.54-.78,14.56,14.56,0,0,0-4.65.9,11,11,0,0,0-4.22-.9,31.45,31.45,0,0,0-7,.8V5.52a30.66,30.66,0,0,1,7-.83,10.19,10.19,0,0,1,3.74.77V23.83a.46.46,0,0,0,.23.4.46.46,0,0,0,.47,0A53.38,53.38,0,0,1,23,20.07a.46.46,0,0,0,.32-.44V.49a.5.5,0,0,0-.2-.39.5.5,0,0,0-.43,0,48,48,0,0,0-7.55,3.78.46.46,0,1,0,.49.79,50.07,50.07,0,0,1,6.76-3.45V19.29A52.25,52.25,0,0,0,14.47,23V5.16a.47.47,0,0,0-.26-.42,10.8,10.8,0,0,0-4.41-1,30.13,30.13,0,0,0-7.59,1,.46.46,0,0,0-.34.45V25.69a.49.49,0,0,0,.18.38.47.47,0,0,0,.28.09l.13,0a30.06,30.06,0,0,1,7.34-.91,10.09,10.09,0,0,1,3.74.77v1.09H2.33a1.4,1.4,0,0,1-1.4-1.4V7.49A.47.47,0,0,0,.47,7,.47.47,0,0,0,0,7.49v18.2A2.34,2.34,0,0,0,2.33,28H25.67A2.34,2.34,0,0,0,28,25.69V7.49A.47.47,0,0,0,27.54,7Z" transform="translate(0 -0.02)"/></g><path d="M15.92,10.5a.48.48,0,0,0,.42.26.54.54,0,0,0,.21,0,38.75,38.75,0,0,1,4.13-1.84.47.47,0,0,0,.3-.59A.46.46,0,0,0,20.4,8a41.09,41.09,0,0,0-4.27,1.89.47.47,0,0,0-.21.63Z" transform="translate(0 -0.02)"/><path d="M15.92,16.1a.46.46,0,0,0,.42.26.54.54,0,0,0,.21-.05,38.75,38.75,0,0,1,4.13-1.84.47.47,0,0,0,.3-.59.46.46,0,0,0-.58-.3,38.48,38.48,0,0,0-4.27,1.9.46.46,0,0,0-.21.62Z" transform="translate(0 -0.02)"/><path d="M11.31,8.68A14.85,14.85,0,0,0,5,8.91a.46.46,0,0,0,.12.91h.13a14.05,14.05,0,0,1,5.84-.22.46.46,0,0,0,.56-.35.47.47,0,0,0-.35-.56Z" transform="translate(0 -0.02)"/><path d="M11.31,11.48a14.85,14.85,0,0,0-6.3.23.46.46,0,0,0,.12.91h.13a14.05,14.05,0,0,1,5.84-.22.46.46,0,0,0,.56-.34.47.47,0,0,0-.35-.57Z" transform="translate(0 -0.02)"/><path d="M15.92,18.9a.46.46,0,0,0,.42.26.54.54,0,0,0,.21-.05,38.75,38.75,0,0,1,4.13-1.84.47.47,0,0,0,.3-.59.46.46,0,0,0-.58-.3,38.48,38.48,0,0,0-4.27,1.9.46.46,0,0,0-.21.62Z" transform="translate(0 -0.02)"/><path d="M11.31,14.29a14.74,14.74,0,0,0-6.3.22.47.47,0,0,0-.33.57.48.48,0,0,0,.45.35l.13,0a14.05,14.05,0,0,1,5.84-.22.46.46,0,1,0,.21-.9Z" transform="translate(0 -0.02)"/><path d="M11.31,19.89a14.74,14.74,0,0,0-6.3.22.47.47,0,0,0-.33.57.48.48,0,0,0,.45.35l.13,0a13.94,13.94,0,0,1,5.84-.21.48.48,0,0,0,.56-.35.47.47,0,0,0-.35-.56Z" transform="translate(0 -0.02)"/><path d="M11.31,17.09a14.74,14.74,0,0,0-6.3.22.47.47,0,0,0-.33.57.48.48,0,0,0,.45.35l.13,0A14.05,14.05,0,0,1,11.1,18a.46.46,0,1,0,.21-.9Z" transform="translate(0 -0.02)"/></g></g></svg>