<svg xmlns="http://www.w3.org/2000/svg" viewBox="0 0 35.97 29.78"><g id="Layer_2" data-name="Layer 2"><g id="Layer_1-2" data-name="Layer 1"><path d="M25.77,0A10.1,10.1,0,0,0,18,3.6,10,10,0,0,0,10.2,0,10.2,10.2,0,0,0,0,10.2H0c0,9.65,16.85,19.08,17.53,19.44a.83.83,0,0,0,.91,0C19.12,29.28,36,20,36,10.2A10.2,10.2,0,0,0,25.77,0ZM18,27.82C15.34,26.27,1.82,18,1.82,10.2A8.38,8.38,0,0,1,10.2,1.82h0a8.19,8.19,0,0,1,7,3.78,1,1,0,0,0,1.34.21,1,1,0,0,0,.21-.21,8.38,8.38,0,0,1,15.39,4.6C34.15,18.12,20.62,26.32,18,27.82Z"/></g></g></svg>