<svg xmlns="http://www.w3.org/2000/svg" viewBox="0 0 32.55 32.55"><g id="Layer_2" data-name="Layer 2"><g id="Layer_1-2" data-name="Layer 1"><path d="M16.27,0A16.28,16.28,0,1,0,32.55,16.27,16.29,16.29,0,0,0,16.27,0Zm-7,19.1h2.86a4.24,4.24,0,0,0,8.36,0h2.86a7.08,7.08,0,0,1-14.08,0Zm4.21-.7V9.91a2.83,2.83,0,0,1,5.66,0V18.4a2.83,2.83,0,0,1-5.66,0ZM17,31.09V26.85a8.49,8.49,0,0,0,7.78-8.45V14.86a.71.71,0,1,0-1.41,0v2.83H20.52V9.91a4.25,4.25,0,1,0-8.49,0v7.78H9.2V14.86a.71.71,0,0,0-1.42,0v3.53h0a8.51,8.51,0,0,0,7.79,8.45v4.24a14.86,14.86,0,1,1,1.41,0Z"/></g></g></svg>