<svg xmlns="http://www.w3.org/2000/svg" xmlns:xlink="http://www.w3.org/1999/xlink" viewBox="0 0 35.06 28.2"><defs><style>.cls-1{fill:none;}.cls-2{clip-path:url(#clip-path);}</style><clipPath id="clip-path"><rect class="cls-1" width="35.05" height="28.26"/></clipPath></defs><g id="Layer_2" data-name="Layer 2"><g id="Layer_1-2" data-name="Layer 1"><g class="cls-2"><path d="M33.27,20.51H1.79A1.79,1.79,0,0,1,0,18.72V1.79A1.79,1.79,0,0,1,1.79,0H33.27a1.79,1.79,0,0,1,1.79,1.79V18.72a1.79,1.79,0,0,1-1.79,1.79ZM1.79,1.45a.34.34,0,0,0-.34.34V18.72a.34.34,0,0,0,.34.34H33.27a.34.34,0,0,0,.34-.34V1.79a.34.34,0,0,0-.34-.34Z"/><path d="M13.79,15.75a.73.73,0,0,1-.39-.64V5.4a.71.71,0,0,1,.39-.64.75.75,0,0,1,.75,0l6.82,4.85a.73.73,0,0,1,.3.59.71.71,0,0,1-.3.59l-6.82,4.85a.67.67,0,0,1-.75.06ZM14.84,6.8v6.9l4.85-3.45Z"/><path d="M34.34,24.61H20.52a2.86,2.86,0,0,0-5.54,0H.72a.72.72,0,0,0-.72.72.73.73,0,0,0,.72.73H15a2.86,2.86,0,0,0,5.54,0H34.34a.73.73,0,0,0,.72-.73.72.72,0,0,0-.72-.72ZM17.75,26.75a1.42,1.42,0,1,1,1.42-1.42,1.43,1.43,0,0,1-1.42,1.42Z"/></g></g></g></svg>