<svg xmlns="http://www.w3.org/2000/svg" viewBox="0 0 170.54 46.48"><defs><style>.cls-1{fill:#fff;}.cls-2{fill:#3e98e9;}</style></defs><g id="Layer_2" data-name="Layer 2"><g id="Layer_1-2" data-name="Layer 1"><path class="cls-1" d="M34.85,10.63A17.29,17.29,0,0,0,16.5,7.4,17.46,17.46,0,0,0,11,11.12a17,17,0,0,0-3.69,5.44A17.57,17.57,0,0,0,7.34,30a17.48,17.48,0,0,0,9.16,9.16,17.4,17.4,0,0,0,13.39,0,17.79,17.79,0,0,0,5-3.2l4.26,4.25a24,24,0,0,1-6.9,4.48,23,23,0,0,1-9,1.82A23.16,23.16,0,0,1,0,23.25,23.08,23.08,0,0,1,6.78,6.86,23.14,23.14,0,0,1,23.2.08a23.27,23.27,0,0,1,15.91,6.3Z"/><path class="cls-1" d="M60.45,46.48H54.12V.08h6.33Z"/><polygon class="cls-2" points="146.67 30.51 151.93 17.27 157.24 30.51 164.14 30.51 151.93 0 139.74 30.51 146.67 30.51"/><path class="cls-1" d="M161.35,40.72H142.58l-2.3,5.76h-6.92l4.86-12.17h27.45l4.87,12.17h-6.89Z"/><path class="cls-1" d="M81.7,10.25V46.48H75.47V.08Z"/><path class="cls-2" d="M119.08.08v46.4h-6.24V10.25Z"/><path d="M97.27,46.48,75.8,13.4,75.47.08l21.8,33.38Z"/><path class="cls-2" d="M104.52,35.43l-4.32-6.69L119.05.08l0,12.53Z"/><path class="cls-1" d="M97.27,46.48,75.8,13.4,75.47.08l31,46.36Z"/></g></g></svg>