<svg xmlns="http://www.w3.org/2000/svg" viewBox="0 0 57.68 57.68"><defs><style>.cls-1{fill:#fff;}</style></defs><g id="Layer_2" data-name="Layer 2"><g id="Layer_1-2" data-name="Layer 1"><path class="cls-1" d="M49.24,8.45A28.84,28.84,0,1,0,8.45,49.24,28.84,28.84,0,0,0,49.24,8.45ZM28.84,54.3A25.46,25.46,0,1,1,54.3,28.84,25.49,25.49,0,0,1,28.84,54.3Z"/><path class="cls-1" d="M40.23,19.59,25.31,34.51l-7.86-7.85a1.69,1.69,0,1,0-2.39,2.39l9,9.05a1.7,1.7,0,0,0,1.2.49,1.67,1.67,0,0,0,1.19-.49L42.62,22a1.69,1.69,0,0,0-2.39-2.39Z"/></g></g></svg>